<?xml version="1.0" encoding="UTF-8"?>
<svg id="Isolation_Mode" xmlns="http://www.w3.org/2000/svg" version="1.1" viewBox="0 0 150 150">
  <!-- Generator: Adobe Illustrator 29.3.1, SVG Export Plug-In . SVG Version: 2.1.0 Build 151)  -->
  <defs>
    <style>
      .st0 {
        opacity: .3;
      }

      .st0, .st1, .st2 {
        fill: #a7aaad;
      }

      .st0, .st2 {
        display: none;
      }
    </style>
  </defs>
  <g>
    <path class="st2" d="M32.8,46.8l-12.9-3.2s-3.1-2-3-3.8c.1-2.2,16.1-.2,16.1-.2v7.1Z"/>
    <path class="st1" d="M141.6,20.3c-.3-6.2-5.5-11.3-11.7-11.5-3.9-.1-7,1.8-10.1,3.8-5.3,3.5-11.8,3.5-17.1,0-1.4-.9-2.8-1.8-4.3-2.5-9.4-4-18.5-3.3-27,2.5-3.6,2.4-7.5,3.1-11.7,2.4-2.7-.4-4.9-2-7.1-3.3-2.2-1.3-4.4-2.6-7.1-2.7-7.4-.4-13.1,5-13.1,12.4,0,15.7,0,31.4,0,47,0,6.9,0,13.8,0,20.6.7,0,1.5-.1,2.3-.1,14.1,0,25.5,11.4,25.5,25.5s-.4,5.2-1.1,7.6c4.3-1.2,8.5-.4,12.7,2.4,9.6,6.3,21.1,6.3,30.7-.2,5.5-3.7,11.9-3.7,17.5,0,2.7,1.7,5.5,3.4,8.8,3.6,7.1.4,12.8-5.2,12.8-12.4,0-31.3,0-62.6,0-94,0-.3,0-.7,0-1ZM62.4,88.7c-3.3,0-6.1-2.7-6.1-6,0-3.3,2.7-6.1,6-6.1,3.3,0,6.1,2.7,6.1,6,0,3.3-2.7,6.1-6,6.1ZM62.3,64.5c-3.3,0-6.1-2.8-6.1-6.1,0-3.3,2.7-6.1,6.1-6.1,3.3,0,6,2.7,6.1,6.1,0,3.3-2.8,6.1-6.1,6.1ZM79.3,52.3c3.7,0,7.4,0,11.1,0s33,0,36.7,0c2.8,0,4.9,2.5,4.9,6,0,3.5-2,6.1-4.9,6.1-7.4,0-40.5,0-47.9,0-2.8,0-4.9-2.7-4.9-6.1,0-3.5,2.1-6,4.9-6ZM127.1,88.7c-3.7,0-33.1,0-36.8,0-3.7,0-7.3,0-11,0-2.8,0-4.9-2.5-4.9-6,0-3.4,2-6.1,4.8-6.1,7.4,0,40.5,0,47.9,0,2.8,0,4.9,2.6,4.9,6.1,0,3.5-2.1,6-4.9,6Z"/>
    <rect class="st0" x="17.1" y="24.3" width="35.9" height="19.9" rx="2.4" ry="2.4"/>
    <rect class="st2" x="16.7" y="23.9" width="35.9" height="19.9" rx="2.4" ry="2.4"/>
    <g>
      <path class="st1" d="M80.9,63.3"/>
      <path class="st1" d="M56.2,45.1"/>
      <path class="st1" d="M56.2,69.4"/>
    </g>
  </g>
  <path class="st1" d="M56.5,122.1H18.7c.3,3.3,1.4,5.9,3.3,7.6,1.9,1.8,4.3,2.6,7.1,2.6,4.2,0,7.1-1.7,8.7-5.2h17.8c-.9,3.5-2.6,6.7-4.9,9.5-2.4,2.8-5.4,5-8.9,6.6-3.6,1.6-7.6,2.4-12,2.4s-10.1-1.1-14.3-3.4c-4.2-2.2-7.4-5.4-9.8-9.6-2.3-4.2-3.5-9-3.5-14.6s1.2-10.4,3.5-14.6c2.3-4.2,5.6-7.4,9.7-9.6,4.2-2.2,9-3.4,14.4-3.4s10,1.1,14.1,3.3c4.1,2.2,7.3,5.3,9.6,9.3,2.3,4,3.5,8.8,3.5,14.1s0,3.1-.3,4.8ZM39.7,113c0-2.8-1-5.1-2.9-6.7-2-1.7-4.4-2.5-7.3-2.5s-5.2.8-7.1,2.4c-1.9,1.6-3.1,3.9-3.6,6.8h20.9Z"/>
</svg>