<?xml version="1.0" encoding="UTF-8"?>
<svg id="Isolation_Mode" data-name="Isolation Mode" xmlns="http://www.w3.org/2000/svg" viewBox="0 0 150 150">
  <defs>
    <style>
      .cls-1 {
        fill: #a7aaad;
        stroke-width: 0px;
      }
    </style>
  </defs>
  <path class="cls-1" d="m143.86,19.49c-.29-6.72-5.99-12.22-12.7-12.44-4.23-.14-7.57,1.92-10.88,4.07-5.77,3.75-12.74,3.75-18.51-.06-1.49-.98-3.01-1.99-4.65-2.68-10.19-4.27-19.98-3.55-29.23,2.65-3.87,2.6-8.06,3.31-12.6,2.56-2.93-.48-5.28-2.11-7.73-3.61-2.37-1.45-4.8-2.76-7.67-2.91-7.97-.42-14.12,5.4-14.13,13.42-.01,16.96,0,33.92,0,50.88,0,7.44,0,14.87,0,22.31.81-.07,1.62-.11,2.45-.11,15.22,0,27.57,12.34,27.57,27.57,0,2.84-.43,5.59-1.23,8.17,4.61-1.26,9.2-.38,13.79,2.63,10.43,6.84,22.86,6.77,33.23-.17,5.96-3.99,12.83-3.97,18.89-.05,2.93,1.89,5.92,3.7,9.56,3.89,7.65.4,13.85-5.58,13.85-13.43.01-33.87,0-67.74,0-101.61,0-.36,0-.72-.02-1.08ZM58.21,93.42c-3.6.02-6.58-2.88-6.63-6.48-.05-3.56,2.9-6.57,6.49-6.63,3.56-.06,6.57,2.89,6.62,6.49.05,3.58-2.9,6.6-6.48,6.62Zm-.07-26.23c-3.6-.03-6.57-2.99-6.57-6.56,0-3.58,2.97-6.55,6.56-6.55,3.6,0,6.54,2.93,6.56,6.54.02,3.57-3,6.6-6.55,6.57Zm18.41-13.12c4-.01,8.01,0,12.01,0s35.69,0,39.65,0c3.07,0,5.29,2.74,5.32,6.5.03,3.73-2.2,6.61-5.25,6.62-8.01.03-43.77.03-51.78,0-3.05-.01-5.28-2.87-5.26-6.6.02-3.77,2.24-6.51,5.3-6.52Zm51.69,39.35c-4,.01-35.77,0-39.77,0-3.97,0-7.93,0-11.9,0-3.08,0-5.29-2.71-5.33-6.49-.04-3.73,2.2-6.62,5.23-6.63,8.01-.03,43.77-.03,51.78,0,3.05.01,5.28,2.85,5.28,6.58,0,3.76-2.24,6.53-5.29,6.54Z"/>
  <g>
    <path class="cls-1" d="m27.05,96.92c-13.51,0-24.45,10.95-24.45,24.45s10.95,24.45,24.45,24.45,24.45-10.95,24.45-24.45-10.95-24.45-24.45-24.45Zm14.34,34.05h-10.62l1.46,3.57-6.41-3.57h-14.02c-1.87,0-3.39-1.52-3.39-3.39v-11.3c-.01-1.86,1.5-3.39,3.37-3.39h29.6c1.87,0,3.39,1.52,3.39,3.39v11.3c0,1.87-1.52,3.39-3.39,3.39Z"/>
    <path class="cls-1" d="m10.49,115.98c.21-.28.52-.43.93-.46.75-.06,1.18.3,1.29,1.06.46,3.09.96,5.71,1.49,7.85l3.24-6.16c.3-.56.67-.86,1.11-.89.65-.04,1.05.37,1.21,1.24.37,1.97.84,3.64,1.4,5.06.38-3.75,1.03-6.46,1.95-8.13.22-.41.55-.62.98-.65.34-.03.65.07.93.3.28.22.43.5.46.84.01.27-.03.49-.15.71-.58,1.06-1.05,2.85-1.43,5.34-.37,2.41-.5,4.29-.41,5.63.03.37-.03.69-.18.98-.18.33-.44.5-.78.53-.38.03-.78-.15-1.17-.55-1.37-1.4-2.47-3.5-3.27-6.3-.96,1.89-1.67,3.31-2.13,4.26-.87,1.67-1.61,2.53-2.23,2.57-.4.03-.74-.31-1.03-1.02-.75-1.94-1.57-5.68-2.44-11.22-.06-.38.03-.72.24-.99h0Zm31.77,2.32c-.53-.93-1.32-1.49-2.37-1.71-.28-.06-.55-.09-.8-.09-1.42,0-2.57.74-3.47,2.22-.77,1.26-1.15,2.65-1.15,4.17,0,1.14.24,2.11.71,2.93.53.93,1.32,1.49,2.37,1.71.28.06.55.09.8.09,1.43,0,2.59-.74,3.47-2.22.77-1.27,1.15-2.66,1.15-4.18.01-1.15-.24-2.11-.71-2.91Zm-1.86,4.09c-.21.98-.58,1.7-1.12,2.19-.43.38-.83.55-1.2.47-.35-.07-.65-.38-.87-.96-.18-.46-.27-.92-.27-1.35,0-.37.03-.74.1-1.08.13-.61.38-1.2.78-1.76.49-.72,1.01-1.02,1.54-.92.35.07.65.38.87.96.18.46.27.92.27,1.35,0,.38-.03.75-.1,1.09h0Zm-7.39-4.09c-.53-.93-1.33-1.49-2.37-1.71-.28-.06-.55-.09-.8-.09-1.42,0-2.57.74-3.47,2.22-.77,1.26-1.15,2.65-1.15,4.17,0,1.14.24,2.11.71,2.93.53.93,1.32,1.49,2.37,1.71.28.06.55.09.8.09,1.43,0,2.59-.74,3.47-2.22.77-1.27,1.15-2.66,1.15-4.18,0-1.15-.24-2.11-.71-2.91Zm-1.88,4.09c-.21.98-.58,1.7-1.12,2.19-.43.38-.83.55-1.2.47-.35-.07-.65-.38-.87-.96-.18-.46-.27-.92-.27-1.35,0-.37.03-.74.1-1.08.13-.61.38-1.2.78-1.76.49-.72,1.01-1.02,1.54-.92.35.07.65.38.87.96.18.46.27.92.27,1.35.01.38-.03.75-.1,1.09h0Z"/>
  </g>
</svg>